<mxfile host="app.diagrams.net" modified="2023-12-09T01:04:20.894Z" agent="Mozilla/5.0 (Windows NT 10.0; Win64; x64; rv:120.0) Gecko/20100101 Firefox/120.0" etag="9Db8oFkJRE1Od-Us74Ha" version="22.1.7" type="device">
  <diagram name="Seite-1" id="ulaDtcHs0nGE5K3a8IIi">
    <mxGraphModel dx="1533" dy="699" grid="1" gridSize="10" guides="1" tooltips="1" connect="1" arrows="1" fold="1" page="1" pageScale="1" pageWidth="827" pageHeight="1169" math="0" shadow="0">
      <root>
        <mxCell id="0" />
        <mxCell id="1" parent="0" />
        <mxCell id="5-avvSn0oEUarH7fLwz4-31" style="edgeStyle=orthogonalEdgeStyle;rounded=0;orthogonalLoop=1;jettySize=auto;html=1;entryX=0;entryY=0.5;entryDx=0;entryDy=0;" edge="1" parent="1" source="5-avvSn0oEUarH7fLwz4-1" target="5-avvSn0oEUarH7fLwz4-7">
          <mxGeometry relative="1" as="geometry" />
        </mxCell>
        <mxCell id="5-avvSn0oEUarH7fLwz4-32" style="edgeStyle=orthogonalEdgeStyle;rounded=0;orthogonalLoop=1;jettySize=auto;html=1;" edge="1" parent="1" source="5-avvSn0oEUarH7fLwz4-3" target="5-avvSn0oEUarH7fLwz4-1">
          <mxGeometry relative="1" as="geometry" />
        </mxCell>
        <mxCell id="5-avvSn0oEUarH7fLwz4-3" value="" style="ellipse;html=1;shape=startState;fillColor=#000000;strokeColor=#ff0000;" vertex="1" parent="1">
          <mxGeometry x="100" y="100" width="30" height="30" as="geometry" />
        </mxCell>
        <mxCell id="5-avvSn0oEUarH7fLwz4-13" value="" style="edgeStyle=orthogonalEdgeStyle;rounded=0;orthogonalLoop=1;jettySize=auto;html=1;" edge="1" parent="1" source="5-avvSn0oEUarH7fLwz4-7" target="5-avvSn0oEUarH7fLwz4-11">
          <mxGeometry relative="1" as="geometry" />
        </mxCell>
        <mxCell id="5-avvSn0oEUarH7fLwz4-59" style="edgeStyle=orthogonalEdgeStyle;rounded=0;orthogonalLoop=1;jettySize=auto;html=1;entryX=0;entryY=0.5;entryDx=0;entryDy=0;" edge="1" parent="1" source="5-avvSn0oEUarH7fLwz4-7" target="5-avvSn0oEUarH7fLwz4-36">
          <mxGeometry relative="1" as="geometry">
            <Array as="points">
              <mxPoint x="354" y="175" />
            </Array>
          </mxGeometry>
        </mxCell>
        <mxCell id="5-avvSn0oEUarH7fLwz4-7" value="Prepare" style="rounded=1;whiteSpace=wrap;html=1;" vertex="1" parent="1">
          <mxGeometry x="294" y="85" width="120" height="60" as="geometry" />
        </mxCell>
        <mxCell id="5-avvSn0oEUarH7fLwz4-14" value="" style="edgeStyle=orthogonalEdgeStyle;rounded=0;orthogonalLoop=1;jettySize=auto;html=1;entryX=0;entryY=0.25;entryDx=0;entryDy=0;" edge="1" parent="1" source="5-avvSn0oEUarH7fLwz4-11" target="5-avvSn0oEUarH7fLwz4-27">
          <mxGeometry relative="1" as="geometry">
            <mxPoint x="1030" y="100" as="targetPoint" />
            <Array as="points">
              <mxPoint x="670" y="100" />
              <mxPoint x="670" y="100" />
            </Array>
          </mxGeometry>
        </mxCell>
        <mxCell id="5-avvSn0oEUarH7fLwz4-37" style="edgeStyle=orthogonalEdgeStyle;rounded=0;orthogonalLoop=1;jettySize=auto;html=1;entryX=0;entryY=0.5;entryDx=0;entryDy=0;" edge="1" parent="1" source="5-avvSn0oEUarH7fLwz4-11" target="5-avvSn0oEUarH7fLwz4-36">
          <mxGeometry relative="1" as="geometry" />
        </mxCell>
        <mxCell id="5-avvSn0oEUarH7fLwz4-51" style="edgeStyle=orthogonalEdgeStyle;rounded=0;orthogonalLoop=1;jettySize=auto;html=1;entryX=0;entryY=0.5;entryDx=0;entryDy=0;" edge="1" parent="1" source="5-avvSn0oEUarH7fLwz4-11" target="5-avvSn0oEUarH7fLwz4-50">
          <mxGeometry relative="1" as="geometry" />
        </mxCell>
        <mxCell id="5-avvSn0oEUarH7fLwz4-11" value="Idle" style="rounded=1;whiteSpace=wrap;html=1;" vertex="1" parent="1">
          <mxGeometry x="450" y="85" width="110" height="60" as="geometry" />
        </mxCell>
        <mxCell id="5-avvSn0oEUarH7fLwz4-55" style="edgeStyle=orthogonalEdgeStyle;rounded=0;orthogonalLoop=1;jettySize=auto;html=1;entryX=0;entryY=0.5;entryDx=0;entryDy=0;" edge="1" parent="1" source="5-avvSn0oEUarH7fLwz4-27" target="5-avvSn0oEUarH7fLwz4-56">
          <mxGeometry relative="1" as="geometry">
            <mxPoint x="1170" y="115" as="targetPoint" />
          </mxGeometry>
        </mxCell>
        <mxCell id="5-avvSn0oEUarH7fLwz4-27" value="Shutdown" style="rounded=1;whiteSpace=wrap;html=1;" vertex="1" parent="1">
          <mxGeometry x="1020" y="85" width="100" height="60" as="geometry" />
        </mxCell>
        <mxCell id="5-avvSn0oEUarH7fLwz4-1" value="Initialize" style="rounded=1;whiteSpace=wrap;html=1;" vertex="1" parent="1">
          <mxGeometry x="150" y="85" width="120" height="60" as="geometry" />
        </mxCell>
        <mxCell id="5-avvSn0oEUarH7fLwz4-38" style="edgeStyle=orthogonalEdgeStyle;rounded=0;orthogonalLoop=1;jettySize=auto;html=1;" edge="1" parent="1" source="5-avvSn0oEUarH7fLwz4-36" target="5-avvSn0oEUarH7fLwz4-27">
          <mxGeometry relative="1" as="geometry">
            <Array as="points">
              <mxPoint x="890" y="175" />
              <mxPoint x="890" y="120" />
            </Array>
          </mxGeometry>
        </mxCell>
        <mxCell id="5-avvSn0oEUarH7fLwz4-36" value="Emergency &lt;br&gt;(Loss of Contact)" style="rounded=1;whiteSpace=wrap;html=1;" vertex="1" parent="1">
          <mxGeometry x="640" y="145" width="120" height="60" as="geometry" />
        </mxCell>
        <mxCell id="5-avvSn0oEUarH7fLwz4-53" style="edgeStyle=orthogonalEdgeStyle;rounded=0;orthogonalLoop=1;jettySize=auto;html=1;entryX=0.5;entryY=0;entryDx=0;entryDy=0;" edge="1" parent="1" source="5-avvSn0oEUarH7fLwz4-50" target="5-avvSn0oEUarH7fLwz4-36">
          <mxGeometry relative="1" as="geometry">
            <Array as="points">
              <mxPoint x="830" y="60" />
              <mxPoint x="830" y="120" />
              <mxPoint x="700" y="120" />
            </Array>
          </mxGeometry>
        </mxCell>
        <mxCell id="5-avvSn0oEUarH7fLwz4-50" value="Busy (Transmitting/receiving from/to CAN/ethernet)" style="rounded=1;whiteSpace=wrap;html=1;" vertex="1" parent="1">
          <mxGeometry x="640" y="20" width="130" height="60" as="geometry" />
        </mxCell>
        <mxCell id="5-avvSn0oEUarH7fLwz4-56" value="" style="ellipse;html=1;shape=endState;fillColor=#000000;strokeColor=#ff0000;" vertex="1" parent="1">
          <mxGeometry x="1190" y="100" width="30" height="30" as="geometry" />
        </mxCell>
      </root>
    </mxGraphModel>
  </diagram>
</mxfile>
